<svg xmlns="http://www.w3.org/2000/svg" width="250" height="250" fill="none"><rect width="250" height="250" fill="#000" rx="125"/><path fill="#fff" d="M92.011 152.936c-3.072 1.195-5.46 1.792-7.167 1.792-5.12 0-7.98-.725-8.576-2.176-8.534-21.931-14.166-36.053-16.897-42.368-.256 2.304-.938 7.637-2.047 16-2.304 16.384-3.456 29.995-3.456 40.832 0 2.645.17 6.187.511 10.624-5.973 0-10.026-.683-12.16-2.048-2.047-1.451-3.072-3.456-3.072-6.016 0-.853 1.409-12.459 4.224-34.816 2.902-22.357 4.352-37.93 4.352-46.72v-.64c-2.474-4.01-5.077-7.296-7.807-9.856 3.157-2.219 6.954-3.328 11.392-3.328 5.632 0 9.983 2.645 13.056 7.936 3.072 5.205 9.087 19.584 18.047 43.136l5.888 15.104c.512-.853 1.28-2.005 2.304-3.456 20.822-30.805 31.531-51.712 32.129-62.72 0 .085 1.024.213 3.072.384 2.048.085 4.224.512 6.528 1.28 2.389.683 4.096 1.792 5.12 3.328 1.109 1.45 1.792 2.901 2.048 4.352.256 1.365.384 3.755.384 7.168 0 3.328-1.408 14.635-4.224 33.92-2.816 19.285-4.224 32.811-4.224 40.576 0 7.68.597 12.928 1.792 15.744-7.254-1.877-12.203-4.352-14.848-7.424-2.646-3.157-3.968-7.509-3.968-13.056 0-3.243.853-11.221 2.56-23.936 1.792-12.715 3.029-22.869 3.712-30.464-3.414 5.888-8.278 13.952-14.592 24.192-6.23 10.24-9.984 16.341-11.264 18.304-1.28 1.877-2.22 3.328-2.817 4.352Zm60.386 25.6c1.28-4.949 3.882-8.704 7.808-11.264-.427-1.707-.64-4.053-.64-7.04 0-3.072.896-11.221 2.688-24.448 3.157-21.931 4.736-38.912 4.736-50.944 0-2.56-.171-6.059-.512-10.496 6.485.341 11.221 1.365 14.208 3.072 1.28.683 2.261 1.75 2.944 3.2.682 1.365 1.066 2.645 1.152 3.84.17 1.195.256 3.37.256 6.528 0 3.157-1.323 13.525-3.968 31.104-2.56 17.493-4.054 31.275-4.48 41.344 20.224 0 35.2-1.621 44.928-4.864-.768 6.315-2.688 11.221-5.76 14.72-3.072 3.499-6.912 5.248-11.52 5.248-1.366 0-5.206-.384-11.52-1.152-6.23-.683-12.843-1.024-19.84-1.024-6.998 0-13.824.725-20.48 2.176Z"/></svg>